<svg width="53" height="27" viewBox="0 0 53 27" fill="none" xmlns="http://www.w3.org/2000/svg">
<path d="M0.448307 14.3235L9.65238 25.5138C9.9481 25.8719 10.3178 26.0509 10.6874 26.0509C11.057 26.0509 11.4267 25.8719 11.7224 25.5138C12.3138 24.7976 12.3138 23.6786 11.7224 22.9624L5.03186 14.8159H26.619C27.4322 14.8159 28.0975 14.0102 28.0975 13.0254C28.0975 12.0407 27.4322 11.235 26.619 11.235H5.03186L11.7224 3.08851C12.3138 2.37234 12.3138 1.25331 11.7224 0.537132C11.131 -0.179044 10.2069 -0.179044 9.61543 0.537132L0.411329 11.7274C-0.143135 12.4883 -0.14312 13.6521 0.448307 14.3235Z" fill="#9A9A9A"/>
<rect width="50" height="4.00159" rx="2.00079" transform="matrix(-1 0 0 1 52.6854 11.0449)" fill="#9A9A9A"/>
</svg>
