<svg width="54" height="27" viewBox="0 0 54 27" fill="none" xmlns="http://www.w3.org/2000/svg">
<path d="M52.4375 11.7335L43.0358 0.708738C42.7338 0.355968 42.361 0.183523 41.9914 0.1901C41.6218 0.196676 41.2554 0.382274 40.9661 0.745566C40.3875 1.47215 40.4074 2.591 41.0115 3.29655L47.8459 11.3227L26.2622 11.7068C25.4491 11.7212 24.7982 12.5387 24.8157 13.5232C24.8333 14.5078 25.5128 15.3016 26.3259 15.2871L47.9096 14.903L41.3651 23.1673C40.7865 23.8939 40.8064 25.0127 41.4105 25.7182C42.0146 26.4238 42.9385 26.4073 43.5171 25.6808L52.5207 14.3285C53.0615 13.5578 53.0408 12.3943 52.4375 11.7335Z" fill="#FF5722"/>
<rect width="50" height="4.00159" rx="2.00079" transform="matrix(0.999842 -0.0177914 -0.0177914 -0.999842 0.266968 15.9412)" fill="#FF5722"/>
</svg>
